<?xml version="1.0" encoding="utf-8"?>
<!-- Generator: Adobe Illustrator 16.0.0, SVG Export Plug-In . SVG Version: 6.00 Build 0)  -->
<!DOCTYPE svg PUBLIC "-//W3C//DTD SVG 1.1//EN" "http://www.w3.org/Graphics/SVG/1.1/DTD/svg11.dtd">
<svg version="1.1" id="Layer_1" xmlns="http://www.w3.org/2000/svg" xmlns:xlink="http://www.w3.org/1999/xlink" x="0px" y="0px"
	 width="33.518px" height="60px" viewBox="0 0 33.518 60" enable-background="new 0 0 33.518 60" xml:space="preserve">
<g>
	<path stroke="#000000" stroke-miterlimit="10" d="M20.955,56.465c0,1.671,1.75,3.026,3.5,3.026l0,0c1.75,0,3.5-1.355,3.5-3.026
		V34.113c0-1.672-1.75-3.027-3.5-3.027l0,0c-1.75,0-3.5,1.355-3.5,3.027V56.465z"/>
	<path d="M29.455,33.89v22.433c0,0,4.633-3.901,4.45-11.034C33.722,38.157,30.455,34.932,29.455,33.89z"/>
	<path d="M31.285,34.804c0,0-1.15-1.908-2.228-2.255c0,0-2.438-18.166-11.826-24.139c0,0-1.158,0.427-3.962-0.854
		c0,0-6.173-2.182-13.269-2.503l0.036-5.305C2.873-0.285,30.507,0.28,31.285,34.804z"/>
</g>
</svg>
