<?xml version="1.0" encoding="utf-8"?>
<!-- Generator: Adobe Illustrator 16.0.0, SVG Export Plug-In . SVG Version: 6.00 Build 0)  -->
<!DOCTYPE svg PUBLIC "-//W3C//DTD SVG 1.1//EN" "http://www.w3.org/Graphics/SVG/1.1/DTD/svg11.dtd">
<svg version="1.1" xmlns="http://www.w3.org/2000/svg" xmlns:xlink="http://www.w3.org/1999/xlink" x="0px" y="0px"
	 width="31.125px" height="30px" viewBox="0 0 31.125 30" enable-background="new 0 0 31.125 30" xml:space="preserve">
<g id="bg" display="none">
</g>
<g id="Layer_1">
	<path display="none" fill="#303030" d="M23.053,0.31c0,0-10.734-3.282-10.819,11.488H7.939v4.552h4.208v13.654h4.794V16.314
		l6.11,0.035v-4.38l-5.96-0.034c0,0-0.245-4.054,1.48-5.524c1.009-0.858,2.405-1.25,4.479-0.723V0.31z"/>
	<path display="none" fill="#303030" d="M35.816,4.687c0,0-1.755-0.128-3.406-1.53c-6.832-5.792-13.297-3.442-15.871,5.648
		c0,0-11.326,4.576-16.474-6.292c0,0-1.373,12.584,8.465,22.423c0,0,1.014,4.348-8.531,2.86c0,0,9.561,3.548,15.51,1.716
		c0,0,17.275,0.574,16.818-22.88L35.816,4.687z"/>
	<path display="none" fill="#303030" d="M41.061,15.025c0,8.298,0.595,15.027-13.612,15.027H13.613C0,30.052,0,23.323,0,15.025l0,0
		C0,6.726,0,0,13.613,0h13.835C41.064,0,41.061,6.726,41.061,15.025L41.061,15.025z"/>
	<polyline display="none" fill="#FFFFFF" points="15.471,7.225 15.471,22.828 28.118,15.026 	"/>
	<g>
		<path fill="none" stroke="#000000" stroke-width="1.9843" stroke-miterlimit="10" d="M30.118,15c0,7.723,0,13.984-13.985,13.984
			h-1.052C1.097,28.984,1.097,22.723,1.097,15l0,0c0-7.724,0-13.984,13.984-13.984h1.052C30.118,1.016,30.118,7.276,30.118,15
			L30.118,15z"/>
		<path fill="none" stroke="#000000" stroke-width="1.9843" stroke-miterlimit="10" d="M22.524,15c0,3.696-2.996,6.691-6.69,6.691
			h-0.453c-3.695,0-6.692-2.995-6.692-6.691l0,0c0-3.696,2.997-6.691,6.692-6.691h0.453C19.528,8.309,22.524,11.304,22.524,15
			L22.524,15z"/>
	</g>
</g>
</svg>
