<?xml version="1.0" encoding="utf-8"?>
<!-- Generator: Adobe Illustrator 16.0.0, SVG Export Plug-In . SVG Version: 6.00 Build 0)  -->
<!DOCTYPE svg PUBLIC "-//W3C//DTD SVG 1.1//EN" "http://www.w3.org/Graphics/SVG/1.1/DTD/svg11.dtd">
<svg version="1.1" xmlns="http://www.w3.org/2000/svg" xmlns:xlink="http://www.w3.org/1999/xlink" x="0px" y="0px"
	 width="35.816px" height="30px" viewBox="0 0 35.816 30" enable-background="new 0 0 35.816 30" xml:space="preserve">
<g id="bg" display="none">
</g>
<g id="Layer_1">
	<path display="none" fill="#303030" d="M23.053,0.31c0,0-10.734-3.282-10.819,11.488H7.939v4.552h4.208v13.654h4.794V16.314
		l6.11,0.035v-4.38l-5.96-0.034c0,0-0.245-4.054,1.48-5.524c1.009-0.858,2.405-1.25,4.479-0.723V0.31z"/>
	<path fill="#303030" d="M35.816,4.687c0,0-1.755-0.128-3.406-1.53c-6.832-5.792-13.297-3.442-15.871,5.648
		c0,0-11.326,4.576-16.474-6.292c0,0-1.373,12.584,8.465,22.423c0,0,1.014,4.348-8.531,2.86c0,0,9.561,3.548,15.51,1.716
		c0,0,17.275,0.574,16.818-22.88L35.816,4.687z"/>
</g>
</svg>
